<svg width="14" height="16" viewBox="0 0 14 16" fill="none" xmlns="http://www.w3.org/2000/svg">
<path d="M4.33594 9.3125C4.51172 9.3125 4.6875 9.16602 4.6875 8.96094V7.78906C4.6875 7.61328 4.51172 7.4375 4.33594 7.4375H3.16406C2.95898 7.4375 2.8125 7.61328 2.8125 7.78906V8.96094C2.8125 9.16602 2.95898 9.3125 3.16406 9.3125H4.33594ZM7.5 8.96094V7.78906C7.5 7.61328 7.32422 7.4375 7.14844 7.4375H5.97656C5.77148 7.4375 5.625 7.61328 5.625 7.78906V8.96094C5.625 9.16602 5.77148 9.3125 5.97656 9.3125H7.14844C7.32422 9.3125 7.5 9.16602 7.5 8.96094ZM10.3125 8.96094V7.78906C10.3125 7.61328 10.1367 7.4375 9.96094 7.4375H8.78906C8.58398 7.4375 8.4375 7.61328 8.4375 7.78906V8.96094C8.4375 9.16602 8.58398 9.3125 8.78906 9.3125H9.96094C10.1367 9.3125 10.3125 9.16602 10.3125 8.96094ZM7.5 11.7734V10.6016C7.5 10.4258 7.32422 10.25 7.14844 10.25H5.97656C5.77148 10.25 5.625 10.4258 5.625 10.6016V11.7734C5.625 11.9785 5.77148 12.125 5.97656 12.125H7.14844C7.32422 12.125 7.5 11.9785 7.5 11.7734ZM4.6875 11.7734V10.6016C4.6875 10.4258 4.51172 10.25 4.33594 10.25H3.16406C2.95898 10.25 2.8125 10.4258 2.8125 10.6016V11.7734C2.8125 11.9785 2.95898 12.125 3.16406 12.125H4.33594C4.51172 12.125 4.6875 11.9785 4.6875 11.7734ZM10.3125 11.7734V10.6016C10.3125 10.4258 10.1367 10.25 9.96094 10.25H8.78906C8.58398 10.25 8.4375 10.4258 8.4375 10.6016V11.7734C8.4375 11.9785 8.58398 12.125 8.78906 12.125H9.96094C10.1367 12.125 10.3125 11.9785 10.3125 11.7734ZM13.125 4.15625C13.125 3.39453 12.4805 2.75 11.7188 2.75H10.3125V1.22656C10.3125 1.05078 10.1367 0.875 9.96094 0.875H8.78906C8.58398 0.875 8.4375 1.05078 8.4375 1.22656V2.75H4.6875V1.22656C4.6875 1.05078 4.51172 0.875 4.33594 0.875H3.16406C2.95898 0.875 2.8125 1.05078 2.8125 1.22656V2.75H1.40625C0.615234 2.75 0 3.39453 0 4.15625V14.4688C0 15.2598 0.615234 15.875 1.40625 15.875H11.7188C12.4805 15.875 13.125 15.2598 13.125 14.4688V4.15625ZM11.7188 14.293C11.7188 14.4102 11.6309 14.4688 11.543 14.4688H1.58203C1.46484 14.4688 1.40625 14.4102 1.40625 14.293V5.5625H11.7188V14.293Z" fill="#6A6C71"/>
</svg>
