<svg width="15" height="15" viewBox="0 0 15 15" fill="none" xmlns="http://www.w3.org/2000/svg">
<path d="M15 7.5C15 8.98041 14.5606 10.4201 13.7293 11.6635C13.6163 11.8325 13.4307 11.9238 13.2417 11.9238C13.1297 11.9238 13.0166 11.8919 12.9165 11.825C12.6475 11.6452 12.5753 11.2812 12.7551 11.0122C13.4572 9.9622 13.8282 8.74775 13.8282 7.5C13.8282 6.96384 13.7611 6.43135 13.6288 5.91751C13.5481 5.60417 13.7368 5.28465 14.0502 5.20397C14.3638 5.12341 14.683 5.312 14.7637 5.62534C14.9205 6.23463 15 6.86531 15 7.5ZM10.7735 12.9168C9.78933 13.513 8.65739 13.8281 7.50005 13.8281C4.01075 13.8281 1.17193 10.9893 1.17193 7.5C1.17193 4.0107 4.01075 1.17188 7.50005 1.17188C8.79198 1.17188 10.0342 1.55846 11.0927 2.28985C11.3589 2.47375 11.7238 2.40704 11.9079 2.14085C12.0918 1.87466 12.0252 1.5097 11.7589 1.32568C10.5037 0.45845 9.03104 0 7.50005 0C5.49677 0 3.6133 0.780144 2.19675 2.19669C0.780204 3.61324 6.10352e-05 5.49671 6.10352e-05 7.5C6.10352e-05 9.50329 0.780204 11.3868 2.19675 12.8033C3.6133 14.2199 5.49677 15 7.50005 15C8.87151 15 10.2134 14.6262 11.3807 13.9191C11.6576 13.7514 11.746 13.3912 11.5784 13.1144C11.4106 12.8375 11.0504 12.7492 10.7735 12.9168V12.9168ZM7.55659 9.19899C7.46378 9.20265 7.37714 9.16969 7.30985 9.10561L4.24112 6.19595C4.00629 5.97324 3.63539 5.98309 3.4128 6.21792C3.1901 6.45275 3.19994 6.82365 3.43477 7.04624L6.50293 9.95544C6.78629 10.2248 7.15284 10.3711 7.54125 10.3711C7.56208 10.3711 7.58291 10.3706 7.60374 10.3698C8.01515 10.3532 8.39304 10.1752 8.66769 9.86835C8.67467 9.86069 8.68131 9.85279 8.68784 9.84467L14.8707 2.15424C15.0735 1.90201 15.0335 1.53316 14.7812 1.33049C14.5291 1.1277 14.1602 1.16776 13.9574 1.41998L7.78661 9.09542C7.72596 9.15871 7.64471 9.19544 7.55659 9.19899V9.19899Z" fill="#6A6C71"/>
</svg>
