<svg width="15" height="15" viewBox="0 0 15 15" fill="none" xmlns="http://www.w3.org/2000/svg">
<path d="M15 7.5C15 8.98041 14.5605 10.4201 13.7292 11.6635C13.6163 11.8325 13.4307 11.9238 13.2416 11.9238C13.1297 11.9238 13.0165 11.8919 12.9165 11.825C12.6474 11.6452 12.5752 11.2812 12.755 11.0122C13.4571 9.9622 13.8281 8.74775 13.8281 7.5C13.8281 6.96384 13.761 6.43135 13.6288 5.91751C13.5481 5.60417 13.7368 5.28465 14.0501 5.20397C14.3637 5.12341 14.683 5.312 14.7637 5.62534C14.9204 6.23463 15 6.86531 15 7.5ZM10.7735 12.9168C9.78927 13.513 8.65733 13.8281 7.49999 13.8281C4.01069 13.8281 1.17187 10.9893 1.17187 7.5C1.17187 4.0107 4.01069 1.17188 7.49999 1.17188C8.79191 1.17188 10.0342 1.55846 11.0926 2.28985C11.3588 2.47375 11.7238 2.40704 11.9078 2.14085C12.0917 1.87466 12.0251 1.5097 11.7588 1.32568C10.5036 0.45845 9.03098 0 7.49999 0C5.49671 0 3.61324 0.780144 2.19669 2.19669C0.780143 3.61324 0 5.49671 0 7.5C0 9.50329 0.780143 11.3868 2.19669 12.8033C3.61324 14.2199 5.49671 15 7.49999 15C8.87145 15 10.2134 14.6262 11.3807 13.9191C11.6575 13.7514 11.746 13.3912 11.5783 13.1144C11.4106 12.8375 11.0503 12.7492 10.7735 12.9168ZM7.55653 9.19899C7.46372 9.20265 7.37708 9.16969 7.30979 9.10561L4.24106 6.19595C4.00623 5.97324 3.63533 5.98309 3.41274 6.21792C3.19004 6.45275 3.19988 6.82365 3.43471 7.04624L6.50287 9.95544C6.78623 10.2248 7.15278 10.3711 7.54119 10.3711C7.56202 10.3711 7.58285 10.3706 7.60368 10.3698C8.01509 10.3532 8.39297 10.1752 8.66763 9.86835C8.67461 9.86069 8.68125 9.85279 8.68777 9.84467L14.8707 2.15424C15.0735 1.90201 15.0334 1.53316 14.7812 1.33049C14.5291 1.1277 14.1601 1.16776 13.9573 1.41998L7.78655 9.09542C7.7259 9.15871 7.64465 9.19544 7.55653 9.19899Z" fill="#6A6C71"/>
</svg>
