<svg width="16" height="14" viewBox="0 0 16 14" fill="none" xmlns="http://www.w3.org/2000/svg">
<path d="M8.5 0.8125C4.33984 0.8125 1 3.56641 1 6.90625C1 8.3125 1.55664 9.60156 2.52344 10.627C2.11328 11.7695 1.20508 12.7656 1.17578 12.7656C0.970703 12.9707 0.941406 13.2637 1.0293 13.5273C1.14648 13.791 1.41016 13.9375 1.70312 13.9375C3.49023 13.9375 4.92578 13.2051 5.77539 12.5898C6.625 12.8535 7.5332 13 8.5 13C12.6309 13 16 10.2754 16 6.90625C16 3.56641 12.6309 0.8125 8.5 0.8125ZM8.5 11.5938C7.70898 11.5938 6.91797 11.4766 6.18555 11.2422L5.51172 11.0371L4.95508 11.4473C4.54492 11.7402 3.95898 12.0625 3.25586 12.2969C3.49023 11.9453 3.69531 11.5352 3.8418 11.125L4.16406 10.3047L3.54883 9.66016C3.02148 9.10352 2.40625 8.16602 2.40625 6.90625C2.40625 4.32812 5.13086 2.21875 8.5 2.21875C11.8398 2.21875 14.5938 4.32812 14.5938 6.90625C14.5938 9.51367 11.8398 11.5938 8.5 11.5938Z" fill="#E42032"/>
</svg>
