<svg width="46" height="46" viewBox="0 0 46 46" fill="none" xmlns="http://www.w3.org/2000/svg">
<rect x="-1" y="1" width="44" height="44" rx="22" transform="matrix(-1 0 0 1 44 0)" stroke="#6A6C71" stroke-width="2"/>
<path d="M12 30C12 30.553 12.56 31 13.25 31H29.5C30.19 31 30.75 30.553 30.75 30C30.75 29.447 30.19 29 29.5 29H13.25C12.56 29 12 29.447 12 30ZM35.75 24H13.25C12.56 24 12 23.553 12 23C12 22.447 12.56 22 13.25 22H35.75C36.44 22 37 22.447 37 23C37 23.553 36.44 24 35.75 24ZM24.5 17H13.25C12.56 17 12 16.553 12 16C12 15.447 12.56 15 13.25 15H24.5C25.19 15 25.75 15.447 25.75 16C25.75 16.553 25.19 17 24.5 17Z" fill="#6A6C71"/>
</svg>
