<svg width="60" height="60" viewBox="0 0 60 60" fill="none" xmlns="http://www.w3.org/2000/svg">
<path d="M47.4638 24.5865C47.343 23.2801 47.4354 19.7288 50.8375 14.7904C51.0949 14.4177 51.0482 13.9151 50.7286 13.5956C49.3415 12.2086 48.4828 11.3334 47.8804 10.7209C47.0884 9.91333 46.7269 9.54536 46.1976 9.06554C45.8443 8.74792 45.3096 8.74239 44.9525 9.05373C39.0227 14.2136 32.4364 24.8758 33.3894 37.9386C33.9479 45.6088 39.5427 51.1762 46.6921 51.1762C54.029 51.1762 59.9983 45.2079 59.9983 37.8708C59.9983 30.7929 54.4429 24.9884 47.4638 24.5865ZM46.6921 49.3012C40.5525 49.3012 35.7451 44.4654 35.259 37.8031C35.259 37.8031 35.259 37.8031 35.259 37.8022C34.1869 23.1107 42.92 13.5682 45.5586 11.0413C45.8159 11.2949 46.1098 11.5933 46.5428 12.0346C47.0646 12.5656 47.7788 13.2925 48.8591 14.3766C44.7291 20.7395 45.5083 25.2731 45.8497 25.9232C46.0118 26.2317 46.3442 26.4396 46.6921 26.4396C52.9954 26.4396 58.1233 31.5674 58.1233 37.8708C58.1233 44.1733 52.9954 49.3012 46.6921 49.3012Z" fill="#E42032"/>
<path d="M14.1685 24.5865C14.0467 23.2838 14.1364 19.7351 17.5422 14.7904C17.7986 14.4177 17.7527 13.9151 17.4332 13.5956C16.0489 12.2113 15.1911 11.337 14.5896 10.7246C13.795 9.91521 13.4323 9.54621 12.9032 9.06556C12.5498 8.74793 12.0151 8.74334 11.6581 9.0528C5.72825 14.2127 -0.859001 24.8731 0.0921862 37.9386V37.9395C0.65253 45.6088 6.24819 51.1762 13.3976 51.1762C20.7346 51.1762 26.7039 45.2079 26.7039 37.8708C26.7039 30.792 21.1484 24.9867 14.1685 24.5865ZM13.3976 49.3012C7.259 49.3012 2.44878 44.4654 1.96175 37.8022V37.8031C0.892436 23.108 9.62562 13.5672 12.2641 11.0413C12.5223 11.2949 12.8172 11.5952 13.2511 12.0374C13.772 12.5684 14.4852 13.2944 15.5637 14.3766C11.4338 20.7404 12.2129 25.2731 12.5544 25.9223C12.7165 26.2308 13.0497 26.4396 13.3976 26.4396C19.701 26.4396 24.8289 31.5674 24.8289 37.8708C24.8289 44.1733 19.701 49.3012 13.3976 49.3012Z" fill="#E42032"/>
</svg>
